<?xml version="1.0" encoding="utf-8"?>
<!-- Generator: Adobe Illustrator 24.0.1, SVG Export Plug-In . SVG Version: 6.00 Build 0)  -->
<svg version="1.1" id="Layer_1" xmlns="http://www.w3.org/2000/svg" xmlns:xlink="http://www.w3.org/1999/xlink" x="0px" y="0px"
	 viewBox="0 0 1920 488" style="enable-background:new 0 0 1920 488;" xml:space="preserve">
<style type="text/css">
	.st0{fill:#F34A50;}
	.st1{fill:#F34A50;stroke:#F34A50;stroke-width:2;stroke-miterlimit:10;}
</style>
<g>
	<g>
		<path class="st0" d="M296.39,342.93l-67.12-88.34v-107.8c8.5-2.2,14.74-10,14.4-19.27c-0.37-10.2-9.35-18.53-19.55-18.53H153.9
			c-10.2,0-19.18,8.33-19.55,18.52c-0.34,9.27,5.91,17.07,14.41,19.27v107.8l-67.12,88.34c-7.47,9.83-8.7,22.82-3.22,33.89
			c5.49,11.07,16.57,17.94,28.91,17.94h163.36c12.35,0,23.42-6.87,28.92-17.95C305.09,365.74,303.86,352.76,296.39,342.93z
			 M282.54,368.03c-2.22,4.48-6.7,7.26-11.69,7.26H107.62c-4.99,0-9.46-2.78-11.68-7.25c-2.22-4.49-1.71-9.74,1.3-13.71l69.03-91
			c1.28-1.68,1.96-3.72,1.96-5.83V147.04h42.02V257.5c0,2.11,0.68,4.15,1.96,5.83l69.03,91
			C284.25,358.31,284.75,363.56,282.54,368.03z"/>
		<path class="st0" d="M237,311.6h-95.78l-32.74,43.07c-1.49,1.97-1.75,4.62-0.65,6.84c1.1,2.22,3.36,3.62,5.84,3.62h150.89
			c2.47,0,4.74-1.41,5.84-3.62c1.1-2.22,0.85-4.87-0.65-6.84L237,311.6z"/>
	</g>
	<g>
	</g>
	<g>
	</g>
	<g>
	</g>
	<g>
	</g>
	<g>
	</g>
	<g>
	</g>
	<g>
	</g>
	<g>
	</g>
	<g>
	</g>
	<g>
	</g>
	<g>
	</g>
	<g>
	</g>
	<g>
	</g>
	<g>
	</g>
	<g>
	</g>
</g>
<g>
	<path class="st0" d="M522.98,249.52v22.94h-96.01v-22.94H522.98z M487.03,309h-24.12v-96.01h24.12V309z"/>
</g>
<g>
	<path class="st0" d="M1059.27,229.37H1142v23.96h-82.73V229.37z M1059.27,269.63H1142v23.96h-82.73V269.63z"/>
</g>
<g>
	<g>
		<g>
			<path class="st1" d="M939.45,302.33c-5.4-40.24-39.97-71.37-81.66-71.37h-70.84c1.17-2.7,2.24-5.46,3.17-8.28
				c1.23-3.7,1.84-7.56,1.84-11.49c0-2.97-0.35-5.95-1.05-8.89c8.5-5.63,17.19-12.8,25.38-20.99c12.5-12.5,22.57-26.07,28.34-38.22
				c8.65-18.18,5.1-27.36,0.6-31.87c-4.51-4.5-13.7-8.06-31.87,0.59c-1.88,0.89-3.8,1.9-5.75,3c-0.1-15.1-4.55-24.84-12.98-27.9
				c-17.96-6.5-39.36,23.2-51.22,55.91c-3.27,9.01-5.79,18.17-7.4,26.81c-36.67,4.43-66.65,28.23-78.2,63.16
				c-1.23,3.7-1.84,7.56-1.84,11.49c0,16.69,10.86,32.23,26.26,38.89c-3.81,9.61-5.74,19.77-5.74,30.3c0,12.52,2.8,24.7,8.16,35.81
				h-14.54c-12.82,0-23.25,10.43-23.25,23.25c0,12.81,10.43,23.24,23.25,23.24l187.67,0.01c22.01,0,42.69-8.57,58.27-24.13
				c4.26-4.27,8-8.92,11.18-13.88c2.67,0.81,5.46,1.25,8.29,1.25c15.7,0,28.48-12.77,28.48-28.47
				C964,316.16,953.3,304.25,939.45,302.33z M755.76,147.03c12.79-35.27,29.89-49.65,34.38-48.02c2.08,0.75,5.57,7.74,3.88,24.47
				c-6.35,4.74-12.74,10.28-18.88,16.42c-9.35,9.34-17.28,19.21-23.17,28.78c-0.63-0.04-2.24-0.08-2.43-0.08
				C751.03,161.6,753.13,154.27,755.76,147.03z M918.51,346.36c-3.12,5.65-7.05,10.89-11.73,15.58c-13.1,13.09-30.5,20.3-49,20.3
				h-72.29v-0.01c-5.97,0-10.76-5.06-10.22-11.07c0.48-5.29,5.15-9.21,10.46-9.21h29.56c3.61,0,6.54-2.93,6.54-6.54v-39.12
				c0-2.79,2.26-5.05,5.05-5.05h40.97c0.26,0,0.52-0.1,0.72-0.28c6.32-5.95,2.22-13.24-3.58-13.24h-49.63
				c-3.89,0-7.05,3.15-7.05,7.05v43.66h-23.03c-11.17,0-21.06,7.71-23.27,18.66c-1.11,5.47-0.29,10.7,1.89,15.15h-93.44
				c-5.31,0-9.97-3.94-10.44-9.23c-0.53-6.01,4.21-11.06,10.1-11.06h25.84c1.26,0,2.53-0.36,3.66-1.12c3-2.02,3.8-6.1,1.78-9.1
				c-7.71-11.45-11.79-24.83-11.79-38.7c0-11.01,2.5-21.54,7.43-31.28c1.64-3.23,0.34-7.18-2.89-8.82
				c-0.51-0.25-1.02-0.43-1.55-0.54c-6.59-1.46-12.47-5.33-16.7-10.46c-4.23-5.14-6.82-11.54-6.82-18.09c0-2.52,0.39-5.01,1.18-7.37
				c5.43-16.42,15.63-30.25,29.48-39.99c13.9-9.76,30.76-14.92,48.76-14.92c0.47,0,4.3,0.17,5.77,0.43c2.82,0.5,5.54-0.89,6.86-3.25
				l0.01,0.01c5.39-9.56,13.66-20.13,23.27-29.75c6.38-6.38,12.99-12.03,19.48-16.68c0.14-0.09,0.27-0.18,0.39-0.28
				c5.05-3.6,10.02-6.59,14.71-8.82c10-4.76,15.62-4.5,16.95-3.16c1.34,1.34,1.6,6.95-3.16,16.96
				c-5.16,10.82-14.31,23.1-25.77,34.57c-8.53,8.53-17.57,15.84-26.23,21.18l0.06,0.1c-2.62,1-4.22,3.49-4.22,6.13
				c0,0.77,0.14,1.56,0.43,2.33c1.19,3.12,1.79,6.29,1.79,9.43c0,2.52-0.4,5.01-1.18,7.37c-1.82,5.52-4.2,10.78-7.06,15.63
				c-1.84,3.12-0.79,7.14,2.33,8.98c1.04,0.62,2.19,0.91,3.32,0.91h81.52c38.21,0,69.3,31.09,69.3,69.3
				C927.07,329.15,918.61,346.15,918.51,346.36z M935.54,345.64c-0.65,0-1.3-0.05-1.94-0.12c4.01-9.37,6.25-19.48,6.57-29.93
				c6.23,1.97,10.76,7.8,10.76,14.68C950.92,338.74,944.02,345.64,935.54,345.64z"/>
		</g>
	</g>
	<g>
		<g>
			<circle class="st1" cx="710.21" cy="220.52" r="7.94"/>
		</g>
	</g>
	<g>
		<g>
			<path class="st1" d="M857.75,253.57c-3.62,0-6.55,2.94-6.55,6.55s2.94,6.55,6.55,6.55c25.59,0,46.4,20.82,46.4,46.4
				c0,3.62,2.94,6.55,6.55,6.55s6.55-2.94,6.55-6.55C917.26,280.27,890.57,253.57,857.75,253.57z"/>
		</g>
	</g>
	<g>
	</g>
	<g>
	</g>
	<g>
	</g>
	<g>
	</g>
	<g>
	</g>
	<g>
	</g>
	<g>
	</g>
	<g>
	</g>
	<g>
	</g>
	<g>
	</g>
	<g>
	</g>
	<g>
	</g>
	<g>
	</g>
	<g>
	</g>
	<g>
	</g>
</g>
<g>
	<path class="st0" d="M1232.82,246.74c0-5.98,0-12.53-0.14-17.72h18.86c0.39,1.81,0.65,6.7,0.75,8.96
		c2.39-4.42,8.08-10.59,20.41-10.59c14.13,0,23.31,9.55,23.31,27.23v44.76h-19.48v-42.59c0-7.91-2.64-13.64-11.23-13.64
		c-8.28,0-13.01,4.6-13.01,17.02v39.21h-19.48V246.74z"/>
	<path class="st0" d="M1336.41,268.36c0.02,8.8,4.42,17.4,14.12,17.4c8.11,0,10.43-3.26,12.27-7.51h19.5
		c-2.5,8.61-10.18,22.75-32.28,22.75c-23.17,0-33.23-17.33-33.23-35.79c0-22.07,11.33-37.83,33.92-37.83
		c24.16,0,32.38,17.48,32.38,35.04c0,2.38,0,3.93-0.26,5.93H1336.41z M1363.58,256.4c-0.14-8.19-3.41-15.08-12.9-15.08
		c-9.33,0-13.09,6.44-13.87,15.08H1363.58z"/>
	<path class="st0" d="M1417.43,229.02c6.35,28.25,9.8,44.29,11.13,53.03h0.26c1.45-7.83,3.46-18.88,12.02-53.03h18.11
		c7.97,34.58,10.34,44.76,11.33,52.34h0.14c1.42-7.24,3.59-17.79,11.79-52.34h19.29l-20.88,70.35h-20.88
		c-5.78-26.69-9.12-40.75-10.71-49.99h-0.14c-1.12,8.81-4.92,24.77-11.12,49.99h-20.96l-19.98-70.35H1417.43z"/>
	<path class="st0" d="M1625.24,200.15v79.88c0,6.4,0,12.9,0.14,19.33h-18.73c-0.39-2.11-0.77-5.75-0.89-7.35
		c-3.4,5.54-9.45,8.98-19.96,8.98c-17.79,0-29.11-14.29-29.11-36.23c0-21.65,12.03-37.38,31.95-37.38c10.12,0,15.56,3.57,17.12,6.72
		v-33.96H1625.24z M1576.7,264.26c0,13.72,5.34,21.14,14.88,21.14c13.39,0,14.94-11.17,14.94-21.28c0-12.03-1.7-21.13-14.43-21.13
		C1581.85,242.99,1576.7,250.97,1576.7,264.26z"/>
	<path class="st0" d="M1707.93,281.19c0,6.7,0.54,16.48,0.95,18.18h-18.61c-0.54-1.39-0.95-5.1-0.98-6.88
		c-2.55,3.95-7.33,8.51-19.78,8.51c-16.96,0-24.12-11.15-24.12-22.06c0-16.03,12.87-23.42,33.5-23.42c3.44,0,7.68,0,10.04,0v-4.3
		c0-5-1.8-9.92-10.83-9.92c-8.22,0-10.02,3.49-10.92,8.59h-18.52c1.05-12.5,8.79-22.62,30.18-22.5c18.84,0.12,29.1,7.48,29.1,24.23
		V281.19z M1688.95,267.34c-1.63,0-5.36,0-7.94,0c-11.74,0-16.09,3.58-16.09,10.37c0,5.09,3.13,9.38,10.13,9.38
		c12.38,0,13.9-8.6,13.9-17.9V267.34z"/>
	<path class="st0" d="M1724.98,229.02h10.85v-19.05h19.48v19.05h13.78v14.64h-13.78v34.72c0,5.34,1.63,7.41,7.44,7.41
		c1.08,0,2.98-0.02,4.44-0.22v13.4c-3.87,1.31-9.16,1.34-13.09,1.34c-13.72,0-18.26-7.34-18.26-19.65v-37.01h-10.85V229.02z"/>
	<path class="st0" d="M1846.3,281.19c0,6.7,0.54,16.48,0.95,18.18h-18.61c-0.54-1.39-0.95-5.1-0.99-6.88
		c-2.55,3.95-7.33,8.51-19.78,8.51c-16.96,0-24.12-11.15-24.12-22.06c0-16.03,12.87-23.42,33.5-23.42c3.44,0,7.68,0,10.04,0v-4.3
		c0-5-1.8-9.92-10.83-9.92c-8.22,0-10.02,3.49-10.92,8.59h-18.52c1.05-12.5,8.79-22.62,30.18-22.5c18.84,0.12,29.1,7.48,29.1,24.23
		V281.19z M1827.32,267.34c-1.63,0-5.36,0-7.94,0c-11.74,0-16.09,3.58-16.09,10.37c0,5.09,3.13,9.38,10.13,9.38
		c12.38,0,13.9-8.6,13.9-17.9V267.34z"/>
</g>
</svg>
